<svg width="12" height="22" viewBox="0 0 12 22" fill="none" xmlns="http://www.w3.org/2000/svg">
<g clip-path="url(#clip0_77_2307)">
<path d="M0 10.9981C0 11.2442 0.045185 11.4726 0.135555 11.6832C0.225925 11.8938 0.368714 12.0966 0.563923 12.2916L9.30028 21.0339C9.6014 21.3446 9.96946 21.5 10.4045 21.5C10.698 21.5 10.9646 21.4275 11.2043 21.2825C11.444 21.1376 11.6365 20.943 11.7819 20.6988C11.9273 20.4546 12 20.1835 12 19.8856C12 19.4405 11.8314 19.0452 11.4942 18.6997L3.75374 10.9944L11.4942 3.2965C11.8314 2.95591 12 2.56183 12 2.11426C12 1.81629 11.9273 1.54521 11.7819 1.30103C11.6365 1.05685 11.444 0.862297 11.2043 0.717378C10.9646 0.572459 10.698 0.5 10.4045 0.5C9.96946 0.5 9.6014 0.65269 9.30028 0.95807L0.563923 9.70092C0.371086 9.89836 0.229483 10.1018 0.139113 10.3112C0.0487429 10.5206 0.00237192 10.7495 0 10.9981Z" fill="white"/>
</g>
<defs>
<clipPath id="clip0_77_2307">
<rect width="12" height="21" fill="white" transform="translate(0 0.5)"/>
</clipPath>
</defs>
</svg>
