<svg width="24" height="24" viewBox="0 0 24 24" fill="none" xmlns="http://www.w3.org/2000/svg">
<path d="M12.0067 9.19991C12.9923 9.19991 13.8361 9.55085 14.538 10.2527C15.2399 10.9546 15.5908 11.8058 15.5908 12.8064C15.5908 13.807 15.2399 14.6507 14.538 15.3377C13.8361 16.0246 12.9923 16.3756 12.0067 16.3905C11.0211 16.4054 10.1699 16.0545 9.45305 15.3377C8.73623 14.6209 8.38529 13.7771 8.40022 12.8064C8.41516 11.8357 8.7661 10.9845 9.45305 10.2527C10.14 9.52098 10.9912 9.17004 12.0067 9.19991ZM20.8102 4.00297C21.6912 4.00297 22.4454 4.31658 23.0726 4.94379C23.6998 5.57101 24.006 6.32516 23.991 7.20625V18.4066C23.991 19.2876 23.6849 20.0418 23.0726 20.669C22.4603 21.2962 21.7062 21.6098 20.8102 21.6098H3.20329C2.3222 21.6098 1.56804 21.2962 0.940825 20.669C0.313608 20.0418 0 19.2876 0 18.4066V7.20625C0 6.32516 0.313608 5.57101 0.940825 4.94379C1.56804 4.31658 2.3222 4.00297 3.20329 4.00297H6.00336L6.63058 2.30052C6.79485 1.89731 7.08606 1.54637 7.5042 1.24769C7.92234 0.94902 8.35542 0.799683 8.80343 0.799683H15.21C15.6431 0.799683 16.0687 0.94902 16.4868 1.24769C16.905 1.54637 17.1962 1.89731 17.3605 2.30052L18.0101 4.00297H20.8102ZM12.0067 18.4066C13.5449 18.4066 14.8591 17.854 15.9492 16.7489C17.0394 15.6438 17.5919 14.3296 17.6069 12.8064C17.6218 11.2832 17.0693 9.96153 15.9492 8.8415C14.8292 7.72147 13.515 7.17639 12.0067 7.20625C10.4984 7.23612 9.17678 7.7812 8.04181 8.8415C6.90685 9.90179 6.36177 11.2234 6.40657 12.8064C6.45137 14.3894 6.99645 15.7035 8.04181 16.7489C9.08718 17.7943 10.4088 18.3468 12.0067 18.4066Z" fill="white"/>
</svg>
