<svg width="269" height="150" viewBox="0 0 269 150" fill="none" xmlns="http://www.w3.org/2000/svg">
<path fill-rule="evenodd" clip-rule="evenodd" d="M92.0851 38.4083L87.9564 63.3759H75.3999L85.9133 0H98.4698L94.2985 25.0951C96.1429 22.6849 98.2428 20.8275 100.598 19.5232C102.982 18.1904 105.734 17.5241 108.855 17.5241C113.651 17.5241 117.312 19.0695 119.837 22.1603C122.363 25.2227 123.157 29.5896 122.221 35.2608L117.539 63.3759H105.025L109.324 37.5576C109.806 34.5519 109.451 32.2692 108.26 30.7096C107.096 29.1217 105.195 28.3277 102.556 28.3277C99.9737 28.3277 97.7178 29.1359 95.7882 30.7522C93.887 32.3685 92.6526 34.9205 92.0851 38.4083ZM228.703 59.0794C232.363 62.6239 237.457 64.3961 243.983 64.3961C249.942 64.3961 254.88 62.9783 258.796 60.1427C262.712 57.3071 265.478 53.5783 267.096 48.9563H255.348C254.639 50.7427 253.418 52.203 251.687 53.3373C249.956 54.4432 247.715 54.9961 244.962 54.9961C241.444 54.9961 239.117 54.1029 237.982 52.3165C236.847 50.53 236.308 48.2615 236.364 45.511C243.203 45.3976 249.02 44.9581 253.816 44.1924C258.64 43.3985 262.3 41.9948 264.797 39.9816C267.323 37.9683 268.585 35.0618 268.585 31.2621C268.585 28.1996 267.805 25.6476 266.244 23.6059C264.712 21.5359 262.612 19.9905 259.945 18.9697C257.278 17.9489 254.27 17.4385 250.921 17.4385C246.097 17.4385 241.756 18.4735 237.897 20.5435C234.037 22.6135 230.902 25.5625 228.49 29.3906C226.106 33.1903 224.702 37.6847 224.276 42.8739C223.567 50.133 225.042 55.5349 228.703 59.0794ZM249.474 36.4512C246.636 36.9333 242.564 37.231 237.258 37.3444C237.939 34.4521 239.202 31.9993 241.046 29.986C242.891 27.9444 245.757 26.9236 249.644 26.9236C252 26.9236 253.787 27.3347 255.007 28.1571C256.256 28.951 256.88 30.0428 256.88 31.4322C256.88 32.6232 256.355 33.644 255.305 34.4947C254.255 35.317 252.312 35.9692 249.474 36.4512ZM91.6355 132.221L99.0843 87.3054H111.641L104.192 132.221H91.6355ZM106.32 81.2655C104.391 81.2655 102.858 80.6134 101.723 79.309C100.588 78.0046 100.177 76.4167 100.489 74.5452C100.801 72.6453 101.737 71.0432 103.298 69.7388C104.859 68.4344 106.618 67.7822 108.576 67.7822C110.534 67.7822 112.081 68.4344 113.216 69.7388C114.351 71.0432 114.762 72.6453 114.45 74.5452C114.138 76.4167 113.187 78.0046 111.598 79.309C110.037 80.6134 108.278 81.2655 106.32 81.2655ZM142.14 97.1299H132.904L126.349 136.474C125.611 141.011 123.937 144.4 121.326 146.64C118.716 148.88 114.828 150 109.664 150H102.981L104.641 139.877H108.344C110.217 139.877 111.565 139.494 112.388 138.728C113.239 137.991 113.821 136.701 114.133 134.858L120.39 97.1299H112.6L114.218 87.3045H122.007L122.986 81.4774C124.377 73.0556 129.938 68.8447 139.671 68.8447H146.822L145.162 78.6701H140.863C139.076 78.6701 137.756 79.0529 136.905 79.8185C136.053 80.5558 135.472 81.8176 135.16 83.6041L134.564 87.3045L139.951 87.3045H147.74L149.783 75.0547H162.297L160.254 87.3045H169.448L167.831 97.1299H158.637L155.146 118.354C154.891 119.886 155.019 120.949 155.529 121.544C156.069 122.112 157.175 122.395 158.85 122.395H163.659L162.042 132.221H154.763C149.797 132.221 146.307 131.256 144.292 129.328C142.278 127.4 141.611 124.394 142.292 120.311L146.123 97.1299L142.14 97.1299ZM171.132 127.925C174.792 131.47 179.886 133.242 186.412 133.242C192.372 133.242 197.309 131.824 201.225 128.988C205.141 126.153 207.907 122.424 209.525 117.802H197.777C197.068 119.588 195.848 121.049 194.117 122.183C192.386 123.289 190.144 123.842 187.391 123.842C183.873 123.842 181.546 122.949 180.411 121.162C179.276 119.376 178.737 117.107 178.793 114.357C185.632 114.243 191.449 113.804 196.245 113.038C201.069 112.244 204.729 110.841 207.226 108.827C209.752 106.814 211.015 103.907 211.015 100.108C211.015 97.0453 210.234 94.4933 208.674 92.4516C207.141 90.3816 205.041 88.8362 202.374 87.8154C199.707 86.7946 196.699 86.2842 193.35 86.2842C188.527 86.2842 184.185 87.3192 180.326 89.3892C176.467 91.4592 173.331 94.4082 170.919 98.2363C168.535 102.036 167.131 106.53 166.705 111.72C165.996 118.979 167.471 124.381 171.132 127.925ZM191.903 105.297C189.066 105.779 184.994 106.077 179.687 106.19C180.368 103.298 181.631 100.845 183.476 98.8317C185.32 96.7901 188.186 95.7693 192.074 95.7693C194.429 95.7693 196.216 96.1805 197.437 97.0028C198.685 97.7968 199.309 98.8885 199.309 100.278C199.309 101.469 198.785 102.49 197.735 103.34C196.685 104.163 194.741 104.815 191.903 105.297ZM218.7 87.3046L211.251 132.221H223.807L227.851 107.891C228.39 104.517 229.653 101.95 231.639 100.192C233.626 98.4343 235.91 97.5553 238.492 97.5553C239.542 97.5553 240.578 97.5837 241.599 97.6404C242.649 97.6971 243.401 97.7396 243.855 97.768L245.6 87.0919C245.118 87.0919 244.565 87.0777 243.94 87.0494C243.344 87.021 242.678 87.0068 241.94 87.0068C238.96 87.0068 236.477 87.659 234.491 88.9634C232.533 90.2678 230.916 92.2669 229.639 94.9607H229.511L230.788 87.3046H218.7ZM55.7303 132.221L59.859 107.253C60.4266 103.765 61.6609 101.213 63.5621 99.5969C65.4917 97.9806 67.7476 97.1725 70.3299 97.1725C72.9688 97.1725 74.8701 97.9664 76.0335 99.5544C77.2253 101.114 77.58 103.397 77.0976 106.402L72.7986 132.221H85.3125L89.9946 104.106C90.931 98.4343 90.1365 94.0675 87.611 91.005C85.0855 87.9142 81.425 86.3688 76.6294 86.3688C73.508 86.3688 70.7555 87.0352 68.3719 88.3679C66.0167 89.6723 63.9168 91.5296 62.0724 93.9399L66.2437 68.8447H53.6872L43.1738 132.221H55.7303ZM19.4414 133.327C15.7525 133.327 12.4893 132.774 9.65165 131.668C6.8424 130.562 4.62906 128.96 3.01162 126.862C1.39417 124.735 0.585449 122.169 0.585449 119.163V118.653C0.585449 118.482 0.599637 118.298 0.628014 118.1H12.9291C12.7021 122.268 15.0006 124.352 19.8245 124.352C22.1797 124.352 24.2086 123.842 25.9112 122.821C27.6422 121.772 28.5076 120.396 28.5076 118.695C28.5076 116.937 26.947 115.732 23.8256 115.08L16.2066 113.591C8.34634 112.003 4.41624 108.175 4.41624 102.107C4.41624 98.9592 5.33846 96.2087 7.18292 93.8551C9.02737 91.4732 11.5245 89.6301 14.6742 88.3257C17.824 87.0213 21.3852 86.3691 25.3579 86.3691C30.7494 86.3691 35.0625 87.5317 38.2974 89.8569C41.5323 92.1538 43.1498 95.3013 43.1498 99.2995C43.1498 100.008 43.093 100.76 42.9795 101.554H31.3595C31.5865 99.5973 31.1183 98.066 29.9548 96.9601C28.7914 95.8259 27.1598 95.2588 25.0599 95.2588C22.7331 95.2588 20.8035 95.8259 19.2712 96.9601C17.7672 98.066 17.0153 99.3988 17.0153 100.958C17.0153 102.745 18.4625 103.95 21.3568 104.574L29.6143 106.233C37.4462 107.821 41.3621 111.408 41.3621 116.994C41.3621 120.226 40.3831 123.076 38.4251 125.543C36.4955 127.982 33.8707 129.896 30.5507 131.285C27.2307 132.646 23.5276 133.327 19.4414 133.327ZM170.195 81.1545L180.581 18.4592H192.967L191.988 24.499H192.031C193.762 21.9753 195.819 20.1889 198.203 19.1397C200.586 18.0622 203.154 17.5234 205.907 17.5234C211.014 17.5234 215.044 19.239 217.995 22.6701C220.946 26.0728 222.422 30.5672 222.422 36.1534C222.422 39.6128 221.897 43.0156 220.847 46.3616C219.825 49.7076 218.321 52.7417 216.335 55.4639C214.377 58.1577 211.979 60.3128 209.142 61.9291C206.304 63.517 203.069 64.311 199.437 64.311C196.316 64.311 193.662 63.6021 191.477 62.1843C189.321 60.7665 187.803 58.7815 186.923 56.2295H186.881L182.752 81.1545H170.195ZM196.5 54.1028C199.394 54.1028 201.835 53.2096 203.821 51.4231C205.807 49.6367 207.311 47.3824 208.333 44.6602C209.383 41.938 209.908 39.2017 209.908 36.4511C209.908 33.5872 209.227 31.4037 207.865 29.9009C206.531 28.398 204.658 27.6466 202.246 27.6466C199.38 27.6466 196.912 28.5256 194.84 30.2837C192.769 32.0418 191.18 34.2393 190.073 36.8765C188.966 39.5136 188.413 42.1932 188.413 44.9154C188.413 47.7794 189.122 50.0337 190.541 51.6783C191.988 53.2946 193.975 54.1028 196.5 54.1028ZM131.353 61.3761C133.964 63.3327 137.227 64.311 141.143 64.311C144.094 64.311 146.818 63.673 149.315 62.3969C151.813 61.0926 153.927 59.1785 155.658 56.6548H155.785L154.679 63.3752H166.895L174.343 18.4592H162.127L161.106 24.5416H160.936C159.942 22.2164 158.396 20.4725 156.296 19.3099C154.196 18.1189 151.699 17.5234 148.805 17.5234C144.974 17.5234 141.441 18.5159 138.206 20.5008C134.971 22.4574 132.247 25.1938 130.034 28.7099C127.82 32.2261 126.331 36.281 125.565 40.8747C124.798 45.5534 124.926 49.6509 125.948 53.167C126.969 56.6832 128.771 59.4196 131.353 61.3761ZM154.295 50.5299C151.969 52.9118 149.23 54.1028 146.081 54.1028C143.016 54.1028 140.76 52.9544 139.313 50.6575C137.894 48.3323 137.525 45.0714 138.206 40.8747C138.916 36.678 140.363 33.4312 142.548 31.1344C144.761 28.8092 147.4 27.6466 150.465 27.6466C153.614 27.6466 155.955 28.8517 157.488 31.262C159.048 33.6722 159.488 36.8765 158.807 40.8747C158.155 44.9012 156.651 48.1197 154.295 50.5299ZM41.8777 62.8223C44.7153 63.9282 47.9786 64.4811 51.6675 64.4811C55.7537 64.4811 59.4568 63.8006 62.7768 62.4395C66.0968 61.05 68.7216 59.136 70.6512 56.6974C72.6092 54.2304 73.5881 51.3806 73.5881 48.148C73.5881 42.5619 69.6722 38.9748 61.8404 37.3869L53.5829 35.728C50.6885 35.1042 49.2413 33.8991 49.2413 32.1126C49.2413 30.5531 49.9933 29.2203 51.4973 28.1144C53.0296 26.9802 54.9592 26.4131 57.286 26.4131C59.3858 26.4131 61.0175 26.9802 62.1809 28.1144C63.3443 29.2203 63.8125 30.7516 63.5855 32.7081H75.2056C75.3191 31.9142 75.3758 31.1627 75.3758 30.4538C75.3758 26.4556 73.7584 23.3081 70.5235 21.0112C67.2886 18.686 62.9754 17.5234 57.584 17.5234C53.6113 17.5234 50.0501 18.1756 46.9003 19.48C43.7505 20.7844 41.2534 22.6275 39.409 25.0094C37.5645 27.363 36.6423 30.1135 36.6423 33.2611C36.6423 39.3293 40.5724 43.1573 48.4326 44.7453L56.0516 46.234C59.173 46.8862 60.7337 48.0913 60.7337 49.8494C60.7337 51.5507 59.8682 52.926 58.1373 53.9752C56.4347 54.996 54.4058 55.5064 52.0506 55.5064C47.2266 55.5064 44.9282 53.4222 45.1552 49.2539H32.8541C32.8257 49.4524 32.8115 49.6367 32.8115 49.8068V50.3172C32.8115 53.323 33.6202 55.8892 35.2377 58.0159C36.8551 60.1143 39.0685 61.7164 41.8777 62.8223Z" fill="white"/>
</svg>
